<?xml version="1.0" standalone="no"?>
<!DOCTYPE svg PUBLIC "-//W3C//DTD SVG 20010904//EN"
 "http://www.w3.org/TR/2001/REC-SVG-20010904/DTD/svg10.dtd">
<svg version="1.0" xmlns="http://www.w3.org/2000/svg"
 width="1000.000000pt" height="249.000000pt" viewBox="0 0 1000.000000 249.000000"
 preserveAspectRatio="xMidYMid meet">

<g transform="translate(0.000000,249.000000) scale(0.100000,-0.100000)"
fill="#000000" stroke="none">
<path d="M9254 2278 c-151 -155 -270 -302 -405 -497 -24 -35 -51 -73 -59 -85
-8 -11 -50 -73 -94 -136 -355 -515 -605 -743 -1052 -956 -142 -68 -444 -173
-570 -198 -238 -47 -574 -71 -864 -62 -352 10 -584 39 -919 111 -113 25 -206
43 -208 41 -5 -4 241 -93 352 -127 55 -16 120 -36 145 -44 161 -49 547 -130
760 -159 416 -56 895 -59 1315 -10 243 28 632 103 830 160 174 50 350 104 385
118 19 8 98 37 175 65 77 27 169 63 204 79 56 25 61 30 40 35 -13 4 -64 7
-114 7 -49 1 -108 4 -130 8 l-40 8 33 12 c59 21 323 141 467 213 l140 69 -90
-5 c-49 -3 -119 -8 -155 -11 l-65 -6 95 60 c200 124 366 265 447 380 25 34 43
65 40 68 -11 12 -398 -100 -562 -162 -11 -4 32 46 95 112 138 144 249 286 331
425 52 89 89 161 89 176 0 7 -231 -118 -348 -189 -114 -69 -290 -186 -327
-218 -42 -36 -158 -113 -149 -100 5 8 31 48 58 89 132 202 205 389 251 639 26
138 31 202 17 202 -5 0 -58 -51 -118 -112z"/>
<path d="M80 1418 c0 -315 -3 -597 -6 -625 l-7 -53 65 0 66 0 7 65 7 66 46
-50 c74 -78 118 -95 237 -96 88 0 107 3 157 27 168 78 260 277 231 496 -25
188 -135 323 -289 352 -122 23 -226 -5 -308 -85 l-56 -53 0 264 0 264 -75 0
-75 0 0 -572z m507 43 c97 -49 149 -168 141 -325 -6 -110 -38 -187 -99 -240
-110 -94 -287 -65 -364 58 -29 47 -30 54 -33 183 -4 166 7 209 77 277 26 26
66 54 87 62 51 19 139 12 191 -15z"/>
<path d="M2810 1365 l0 -625 75 0 75 0 0 158 0 158 39 43 c22 24 44 40 49 37
6 -3 43 -52 83 -109 40 -56 91 -127 113 -157 23 -30 53 -72 66 -92 l25 -38 93
0 c72 0 91 3 86 13 -5 6 -86 116 -181 244 -95 128 -173 237 -173 242 0 5 70
85 155 176 85 91 155 168 155 170 0 3 -39 5 -88 5 l-87 0 -100 -117 c-55 -65
-129 -153 -165 -196 l-65 -78 -3 395 -2 396 -75 0 -75 0 0 -625z"/>
<path d="M3813 1949 c-46 -13 -77 -68 -70 -125 6 -54 27 -80 79 -96 49 -14
109 2 137 39 43 53 18 153 -44 179 -39 16 -56 16 -102 3z"/>
<path d="M5775 1946 c-64 -28 -89 -92 -62 -157 15 -37 65 -69 106 -69 34 0 87
26 105 51 21 31 21 103 -1 136 -18 26 -68 53 -100 53 -10 -1 -31 -7 -48 -14z"/>
<path d="M5270 1799 c-30 -10 -74 -23 -97 -29 l-43 -11 0 -79 0 -79 -62 -3
-63 -3 0 -80 0 -80 62 -3 62 -3 3 -272 c3 -258 4 -274 25 -313 29 -55 83 -101
135 -115 44 -12 215 -8 237 5 7 4 11 38 11 88 l0 81 -44 -6 c-64 -9 -113 8
-133 46 -15 27 -18 66 -21 260 l-3 227 105 0 106 0 0 85 0 85 -105 0 -105 0 0
110 c0 61 -3 109 -7 109 -5 -1 -33 -10 -63 -20z"/>
<path d="M4415 1611 c-72 -12 -134 -30 -177 -52 l-36 -18 20 -68 c11 -38 21
-69 23 -71 1 -1 29 10 61 25 52 25 71 28 159 28 90 0 104 -2 130 -23 38 -30
54 -59 55 -99 l0 -31 -77 -7 c-172 -15 -306 -64 -363 -133 -61 -74 -85 -191
-57 -269 21 -56 75 -121 119 -145 37 -20 58 -23 143 -23 112 0 168 19 224 78
33 32 37 29 43 -28 l3 -30 95 -3 96 -3 -4 298 c-4 328 -10 372 -64 451 -33 48
-102 96 -158 112 -51 14 -177 20 -235 11z m243 -521 c4 -85 -10 -131 -53 -169
-69 -60 -162 -65 -217 -11 -24 24 -28 36 -28 83 0 92 60 140 193 156 106 13
102 15 105 -59z"/>
<path d="M6575 1614 c-82 -21 -118 -39 -163 -84 -56 -55 -62 -52 -62 26 l0 44
-97 0 -96 0 6 -112 c4 -62 7 -256 7 -430 l0 -318 104 0 105 0 3 288 c3 328 4
331 86 383 39 25 54 30 91 26 54 -6 90 -32 116 -83 18 -36 20 -62 23 -326 l3
-288 104 0 104 0 3 288 c3 319 5 325 73 378 77 58 170 36 215 -52 25 -48 25
-52 28 -331 l3 -283 105 0 104 0 0 283 c0 313 -10 389 -58 466 -99 160 -323
172 -462 25 -28 -30 -53 -54 -54 -54 -2 0 -9 13 -15 29 -16 38 -68 87 -113
105 -40 17 -131 28 -163 20z"/>
<path d="M1200 1595 c-51 -11 -160 -52 -160 -60 0 -7 33 -95 35 -95 2 0 24 9
50 20 25 11 76 25 112 30 139 23 229 -24 252 -130 17 -80 21 -76 -79 -84 -95
-7 -220 -35 -267 -60 -102 -53 -157 -142 -157 -251 0 -162 113 -257 290 -242
75 6 161 44 198 88 14 16 27 29 30 29 3 0 8 -22 12 -50 l7 -50 66 0 66 0 -3
287 c-3 300 -11 362 -52 444 -23 44 -70 86 -128 111 -57 26 -188 32 -272 13z
m298 -528 c-3 -94 -6 -108 -31 -144 -67 -97 -226 -123 -296 -49 -48 51 -47
161 2 214 47 51 138 80 255 81 l74 1 -4 -103z"/>
<path d="M2211 1600 c-60 -13 -122 -51 -170 -106 l-41 -47 0 72 0 71 -70 0
-70 0 0 -425 0 -425 80 0 80 0 0 283 c0 314 3 328 71 396 44 45 86 61 157 61
95 0 159 -57 181 -161 6 -28 11 -164 11 -314 l0 -265 76 0 75 0 -3 317 -3 318
-26 55 c-14 31 -40 72 -57 92 -59 66 -185 100 -291 78z"/>
<path d="M3748 1143 c-3 -414 -5 -462 -21 -498 -26 -57 -72 -92 -140 -107
l-58 -12 5 -36 c3 -19 8 -56 12 -82 6 -46 7 -48 40 -48 98 0 224 50 279 111
96 106 104 163 105 702 l0 427 -109 0 -110 0 -3 -457z"/>
<path d="M5710 1170 l0 -430 110 0 110 0 0 430 0 430 -110 0 -110 0 0 -430z"/>
</g>
</svg>
